#N canvas 199 251 1190 759 12;
#X obj 125 89 osc~;
#X obj 126 39 hsl 100 19 0 22000 0 0 empty empty empty -2 -10 0 12 #fcfcfc #000000 #000000 0 1;
#X floatatom 125 67 8 0 0 0 - - - 0;
#X obj 122 210 spectrum~;
#X obj 255 89 osc~;
#X obj 256 39 hsl 100 19 0 22000 0 0 empty empty empty -2 -10 0 12 #fcfcfc #000000 #000000 0 1;
#X floatatom 255 67 8 0 0 0 - - - 0;
#X obj 182 126 +~;
#X obj 367 26 grapher~;
#X obj 174 159 /~ 2;
#X obj 52 164 dac~;
#X connect 0 0 7 0;
#X connect 1 0 2 0;
#X connect 2 0 0 0;
#X connect 4 0 7 1;
#X connect 5 0 6 0;
#X connect 6 0 4 0;
#X connect 7 0 9 0;
#X connect 7 0 10 0;
#X connect 7 0 10 1;
#X connect 9 0 3 0;
#X connect 9 0 8 0;
