#N canvas 67 25 1251 619 12;
#X obj 118 68 osc~;
#X obj 197 68 osc~;
#X obj 262 66 osc~;
#X obj 118 19 f;
#X obj 196 41 * 2;
#X obj 262 40 * 3;
#X obj 119 128 +~;
#X obj 196 128 +~;
#X obj 122 292 grapher~;
#X obj 0 17 hsl 100 19 0 22000 0 0 empty empty empty -2 -10 0 12 #fcfcfc #000000 #000000 0 1;
#X floatatom 7 43 8 0 0 0 - - - 0;
#X obj 160 64 vsl 19 50 0 3 0 0 empty empty empty 0 -9 0 12 #fcfcfc #000000 #000000 0 1;
#X obj 120 243 /~;
#X floatatom 164 173 5 0 0 0 - - - 0;
#X obj 411 199 spectrum~;
#X obj 332 66 osc~;
#X obj 332 40 * 4;
#X obj 262 127 +~;
#X obj 41 273 dac~;
#X connect 0 0 6 0;
#X connect 1 0 7 0;
#X connect 2 0 17 0;
#X connect 3 0 0 0;
#X connect 3 0 4 0;
#X connect 3 0 5 0;
#X connect 4 0 1 0;
#X connect 5 0 2 0;
#X connect 6 0 12 0;
#X connect 7 0 6 1;
#X connect 9 0 10 0;
#X connect 10 0 3 0;
#X connect 11 0 13 0;
#X connect 12 0 8 0;
#X connect 12 0 14 0;
#X connect 12 0 18 0;
#X connect 12 0 18 1;
#X connect 13 0 12 1;
#X connect 15 0 17 1;
#X connect 16 0 15 0;
#X connect 17 0 7 1;
