#N canvas -4 226 1280 455 12;
#X obj 61 28 osc~ 440;
#X obj 4 76 grapher~;
#X obj 317 26 phasor~ 440;
#X obj 266 76 grapher~;
#X obj 677 186 phasor~ 440;
#X obj 770 188 phasor~ 440;
#X obj 754 221 +~;
#X obj 876 306 grapher~;
#X floatatom 674 81 5 0 0 0 - - - 0;
#X obj 755 138 * -1;
#X obj 754 245 -~ 1;
#X obj 645 323 dac~;
#X obj 760 111 trigger f b;
#X floatatom 686 134 5 0 0 0 - - - 0;
#X msg 840 139 0.5;
#X msg 713 156 0;
#X obj 754 273 *~ 2;
#X obj 2590 324 osc~;
#X obj 1298 169 phasor~ 440;
#X obj 1298 199 *~ 2;
#X obj 1298 226 -~ 1;
#X obj 1299 257 clip~ 0 1;
#X obj 1428 198 *~ 2;
#X obj 1428 225 -~ 1;
#X obj 1429 256 clip~ 0 1;
#X obj 1428 168 phasor~ -440;
#X obj 1358 312 +~;
#X obj 1359 348 grapher~;
#X obj 1300 104 t f b;
#X msg 1419 136 0;
#X floatatom 1300 70 5 0 0 0 - - - 0;
#X obj 1342 134 * -1;
#X connect 0 0 1 0;
#X connect 2 0 3 0;
#X connect 4 0 6 0;
#X connect 5 0 6 1;
#X connect 6 0 10 0;
#X connect 8 0 12 0;
#X connect 9 0 5 0;
#X connect 10 0 16 0;
#X connect 12 0 9 0;
#X connect 12 0 13 0;
#X connect 12 1 14 0;
#X connect 12 1 15 0;
#X connect 13 0 4 0;
#X connect 14 0 5 1;
#X connect 15 0 4 1;
#X connect 16 0 7 0;
#X connect 16 0 11 0;
#X connect 16 0 11 1;
#X connect 18 0 19 0;
#X connect 19 0 20 0;
#X connect 20 0 21 0;
#X connect 21 0 26 0;
#X connect 22 0 23 0;
#X connect 23 0 24 0;
#X connect 24 0 26 1;
#X connect 25 0 22 0;
#X connect 26 0 27 0;
#X connect 28 0 18 0;
#X connect 28 0 31 0;
#X connect 28 1 29 0;
#X connect 29 0 25 1;
#X connect 29 0 18 1;
#X connect 30 0 28 0;
#X connect 31 0 25 0;
