#N canvas 0 236 1280 455 12;
#X obj 61 28 osc~ 440;
#X obj 4 76 grapher~;
#X obj 317 26 phasor~ 440;
#X obj 266 76 grapher~;
#X obj 678 122 phasor~ 440;
#X obj 809 122 phasor~ 440;
#X obj 754 171 +~;
#X obj 755 256 grapher~;
#X floatatom 677 37 5 0 0 0 - - - 0;
#X connect 0 0 1 0;
#X connect 2 0 3 0;
#X connect 4 0 6 0;
#X connect 5 0 6 1;
#X connect 6 0 7 0;
#X connect 8 0 4 0;
#X connect 8 0 5 0;
