#N canvas 6 300 1251 388 12;
#X obj 22 67 osc~;
#X obj 24 7 hsl 60 19 0 2000 0 0 empty empty empty -2 -10 0 12 #fcfcfc #000000 #000000 0 1;
#X obj 98 6 grapher~;
#X obj 22 100 lop~ 500;
#X obj 353 4 grapher~;
#X floatatom 20 36 5 0 0 0 - - - 0;
#X connect 0 0 3 0;
#X connect 0 0 2 0;
#X connect 1 0 5 0;
#X connect 3 0 4 0;
#X connect 5 0 0 0;
