#N canvas 998 238 450 590 12;
#X obj 193 119 f;
#X obj 81 111 random 5;
#X obj 81 -18 tgl 19 0 empty empty empty 0 -10 0 12 #fcfcfc #000000 #000000 0 1;
#X floatatom 83 168 5 0 0 0 - - - 0;
#X floatatom 216 167 5 0 0 0 - - - 0;
#X obj 144 204 ==;
#X obj 25 35 bng 19 250 50 0 empty empty empty 0 -10 0 12 #fcfcfc #000000 #000000;
#X obj 80 56 trigger bang bang;
#X obj 159 250 select 0 1;
#X obj 160 293 f;
#X obj 160 325 print;
#X obj 81 17 metro 50;
#X connect 0 0 4 0;
#X connect 0 0 5 1;
#X connect 1 0 3 0;
#X connect 2 0 11 0;
#X connect 3 0 0 1;
#X connect 3 0 5 0;
#X connect 3 0 9 1;
#X connect 5 0 8 0;
#X connect 7 0 1 0;
#X connect 7 1 0 0;
#X connect 8 0 9 0;
#X connect 9 0 10 0;
#X connect 11 0 7 0;
