#N canvas 272 102 927 648 12;
#X obj 171 92 + 200;
#X floatatom 171 121 5 0 0 0 - - - 0;
#X obj 106 39 bng 19 250 50 0 empty empty empty 0 -10 0 12 #fcfcfc #000000 #000000;
#X obj 242 93 f;
#X floatatom 241 118 5 0 0 0 - - - 0;
#X obj 171 152 ==;
#X floatatom 171 177 5 0 0 0 - - - 0;
#X obj 171 66 random 5;
#X obj 124 153 print;
#X obj 170 226 bng 19 250 50 0 empty empty empty 0 -10 0 12 #fcfcfc #000000 #000000;
#X obj 171 204 select 0;
#X obj 167 257 f;
#X floatatom 166 280 5 0 0 0 - - - 0;
#X obj 88 7 tgl 19 0 empty empty empty 0 -10 0 12 #fcfcfc #000000 #000000 0 1;
#X obj 170 10 metro 1000;
#X obj 170 39 t b b;
#X connect 0 0 1 0;
#X connect 1 0 3 1;
#X connect 1 0 5 0;
#X connect 1 0 8 0;
#X connect 1 0 11 1;
#X connect 3 0 4 0;
#X connect 3 0 5 1;
#X connect 5 0 6 0;
#X connect 6 0 10 0;
#X connect 7 0 0 0;
#X connect 9 0 11 0;
#X connect 10 0 9 0;
#X connect 11 0 12 0;
#X connect 13 0 14 0;
#X connect 14 0 2 0;
#X connect 14 0 15 0;
#X connect 15 0 7 0;
#X connect 15 1 3 0;
