#N canvas 419 350 450 300 12;
#X obj 171 65 random 10;
#X obj 172 94 trigger bang float bang float;
#X obj 176 197 f;
#X obj 262 138 f;
#X obj 262 168 ==;
#X obj 176 226 sel 0;
#X obj 260 226 sel 1;
#X obj 176 252 f;
#X floatatom 175 277 5 0 0 0 - - - 0;
#X obj 240 276 print;
#X obj 172 21 bng 19 250 50 0 empty empty empty 0 -10 0 12 #fcfcfc #000000 #000000;
#X floatatom 371 143 5 0 0 0 - - - 0;
#X connect 0 0 1 0;
#X connect 1 0 2 0;
#X connect 1 1 3 1;
#X connect 1 2 3 0;
#X connect 1 3 4 1;
#X connect 1 3 7 1;
#X connect 1 3 11 0;
#X connect 2 0 6 0;
#X connect 2 0 5 0;
#X connect 3 0 4 0;
#X connect 4 0 2 1;
#X connect 5 0 7 0;
#X connect 6 0 0 0;
#X connect 7 0 8 0;
#X connect 7 0 9 0;
#X connect 10 0 0 0;
