#N canvas 331 248 718 393 12;
#X obj 79 117 dac~;
#X obj 80 44 osc~ 500;
#X obj 81 88 *~ 0.1;
#X floatatom 79 6 5 0 0 0 - - - 0;
#X msg 21 6 500;
#X msg 21 34 1000;
#X msg 156 44 1;
#X msg 161 90 0;
#X text 149 1 comment;
#X connect 1 0 2 0;
#X connect 2 0 0 0;
#X connect 3 0 1 0;
#X connect 4 0 1 0;
#X connect 5 0 1 0;
#X connect 6 0 2 1;
#X connect 7 0 2 1;
