#N canvas 243 216 674 300 12;
#X obj 158 33 bng 19 250 50 0 empty empty empty 0 -10 0 12 #fcfcfc #000000 #000000;
#X msg 131 72 1;
#X floatatom 131 147 7 0 0 0 - - - 0;
#X msg 179 71 2;
#X obj 131 109 +;
#X obj 285 36 trigger bang bang bang bang;
#X msg 284 73 2;
#X msg 347 74 4;
#X obj 284 108 +;
#X floatatom 283 146 7 0 0 0 - - - 0;
#X obj 285 3 bng 19 250 50 0 empty empty empty 0 -10 0 12 #fcfcfc #000000 #000000;
#X obj 486 150 bng 19 250 50 0 empty empty empty 0 -10 0 12 #fcfcfc #000000 #000000;
#X obj 486 116 metro 500;
#X obj 486 82 tgl 19 0 empty empty empty 0 -10 0 12 #fcfcfc #000000 #000000 0 1;
#X connect 0 0 1 0;
#X connect 0 0 3 0;
#X connect 1 0 4 0;
#X connect 3 0 4 1;
#X connect 4 0 2 0;
#X connect 5 0 6 0;
#X connect 5 1 7 0;
#X connect 6 0 8 0;
#X connect 7 0 8 1;
#X connect 8 0 9 0;
#X connect 10 0 5 0;
#X connect 12 0 11 0;
#X connect 13 0 12 0;
