#N canvas 88 487 450 300 12;
#X obj 188 89 print;
#X msg 177 48 Hola mundo;
#X floatatom 85 57 5 0 0 0 - - - 0;
#X obj 133 16 bng 19 250 50 0 empty empty empty 0 -10 0 12 #fcfcfc #000000 #000000;
#X connect 1 0 0 0;
#X connect 2 0 0 0;
#X connect 3 0 0 0;
