#N canvas 96 113 1193 560 12;
#X obj 630 158 grapher~;
#X obj 706 31 osc~ 440;
#X obj 60 88 grapher~;
#X obj 613 31 phasor~ 440;
#X obj 736 59 +~ 1;
#X obj 735 87 *~ 0.5;
#X obj 671 2 hsl 162 19 0 200 0 0 empty empty empty -2 -10 0 12 #fcfcfc #000000 #000000 0 1;
#X obj 522 34 osc~ 440;
#X obj 469 6 hsl 162 19 0 2000 0 0 empty empty empty -2 -10 0 12 #fcfcfc #000000 #000000 0 1;
#X obj 524 75 *~;
#X obj 519 123 dac~;
#X obj 362 156 grapher~;
#X connect 1 0 4 0;
#X connect 3 0 9 1;
#X connect 4 0 5 0;
#X connect 5 0 0 0;
#X connect 6 0 1 0;
#X connect 6 0 3 0;
#X connect 7 0 9 0;
#X connect 8 0 7 0;
#X connect 9 0 10 0;
#X connect 9 0 10 1;
#X connect 9 0 11 0;
