#N canvas 213 312 1193 560 12;
#X obj 679 12 grapher~;
#X obj 427 50 osc~ 440;
#X obj 420 -1 hsl 162 19 0 2000 0 0 empty empty empty -2 -10 0 12 #fcfcfc #000000 #000000 0 1;
#X obj 531 177 dac~;
#X obj 427 81 *~ 0.75;
#X floatatom 427 26 5 0 0 0 - - - 0;
#X obj 427 135 +~;
#X obj 549 45 * 2, f 5;
#X floatatom 549 71 5 0 0 0 - - - 0;
#X obj 549 98 osc~;
#X obj 547 125 *~ 0.25;
#X connect 1 0 4 0;
#X connect 2 0 5 0;
#X connect 4 0 6 0;
#X connect 5 0 1 0;
#X connect 5 0 7 0;
#X connect 6 0 0 0;
#X connect 6 0 3 0;
#X connect 6 0 3 1;
#X connect 7 0 8 0;
#X connect 8 0 9 0;
#X connect 9 0 10 0;
#X connect 10 0 6 1;
