#N canvas 170 234 828 531 12;
#X obj 312 244 arduino;
#X msg 269 133 open 2;
#X msg 188 132 devices;
#X msg 347 134 close;
#X obj 312 272 route analog;
#X obj 312 303 route 0 1 2 3 4 5;
#X floatatom 312 334 5 0 0 0 - - - 0;
#X msg 540 133 analogIns 0 1;
#X obj 455 272 route digital;
#X floatatom 455 328 5 0 0 0 - - - 0;
#X msg 407 133 pinMode 6 input;
#X obj 456 301 route 6;
#X obj 190 76 loadbang;
#X obj 313 365 outlet;
#X obj 455 368 outlet;
#X obj 289 30 inlet;
#X obj 301 82 bng 19 250 50 0 empty empty empty 0 -10 0 12 #fcfcfc #000000 #000000;
#X obj 356 31 inlet;
#X connect 0 0 4 0;
#X connect 0 0 8 0;
#X connect 1 0 0 0;
#X connect 2 0 0 0;
#X connect 3 0 0 0;
#X connect 4 0 5 0;
#X connect 5 0 6 0;
#X connect 6 0 13 0;
#X connect 7 0 0 0;
#X connect 8 0 11 0;
#X connect 9 0 14 0;
#X connect 10 0 0 0;
#X connect 11 0 9 0;
#X connect 12 0 1 0;
#X connect 12 0 10 0;
#X connect 12 0 7 0;
#X connect 15 0 16 0;
#X connect 16 0 1 0;
#X connect 16 0 10 0;
#X connect 16 0 7 0;
#X connect 17 0 3 0;
