#N canvas 540 392 577 300 12;
#X obj 180 128 vline~;
#X msg 194 34 1 1000 \, 0 1000 1000 \, 1 1000 3000;
#X msg 181 99 1 1000 \, 0.5 1000 1000 \, 0.5 1000 2000 \, 0 1000 3000;
#X obj 180 70 inlet;
#X obj 180 158 outlet~;
#X connect 0 0 4 0;
#X connect 2 0 0 0;
#X connect 3 0 2 0;
