#N canvas 551 304 495 355 12;
#X obj 251 106 lfo~;
#X floatatom 248 56 5 0 0 0 - - - 0;
#X obj 99 102 osc~ 440;
#X obj 98 185 *~;
#X obj 39 228 dac~;
#X obj 30 110 noise~;
#X obj 216 213 envelop~;
#X obj 216 187 bng 19 250 50 0 empty empty empty 0 -10 0 12 #fcfcfc #000000 #000000;
#X obj 97 231 *~;
#X obj 253 261 ainputs;
#X floatatom 310 291 5 0 0 0 - - - 0;
#X obj 320 198 bng 19 250 50 0 empty empty empty 0 -10 0 12 #fcfcfc #000000 #000000;
#X obj 362 198 bng 19 250 50 0 empty empty empty 0 -10 0 12 #fcfcfc #000000 #000000;
#X connect 0 0 3 1;
#X connect 1 0 0 0;
#X connect 3 0 4 0;
#X connect 3 0 4 1;
#X connect 5 0 3 0;
#X connect 6 0 8 1;
#X connect 7 0 6 0;
#X connect 9 0 0 0;
#X connect 9 1 10 0;
#X connect 11 0 9 0;
#X connect 12 0 9 1;
