#N canvas 354 373 1091 499 12;
#X obj 162 110 osc~;
#X obj 163 39 vsl 19 50 0 50 0 0 empty empty empty 0 -9 0 12 #fcfcfc #000000 #000000 0 1;
#X obj 234 146 grapher~;
#X obj 508 147 grapher~;
#X obj 777 143 grapher~;
#X obj 162 141 +~ 1;
#X obj 161 170 /~ 2;
#X obj 157 236 outlet~;
#X obj 163 6 inlet;
#X obj 189 40 vsl 19 50 0 1 0 0 empty empty empty 0 -9 0 12 #fcfcfc #000000 #000000 0 1;
#X obj 269 25 loadbang;
#X msg 270 56 1;
#X obj 160 201 *~;
#X connect 0 0 2 0;
#X connect 0 0 5 0;
#X connect 1 0 0 0;
#X connect 5 0 3 0;
#X connect 5 0 6 0;
#X connect 6 0 4 0;
#X connect 6 0 12 0;
#X connect 8 0 1 0;
#X connect 9 0 12 1;
#X connect 10 0 11 0;
#X connect 11 0 9 0;
#X connect 12 0 7 0;
#X coords 0 -1 1 1 85 60 1 130 35;
