#N canvas -160 301 1440 571 12;
#X obj 95 26 adc~;
#N canvas 295 242 450 278 (subpatch) 0;
#X array entrada 1.40009e+06 float 2;
#X coords 0 1 1.40009e+06 -1 200 140 1;
#X restore 270 32 graph;
#X obj 93 97 tabwrite~ entrada;
#X obj 161 27 tgl 19 0 empty empty empty 0 -10 0 12 #fcfcfc #000000 #000000 0 1;
#X obj 53 51 bng 19 250 50 0 empty empty empty 0 -10 0 12 #fcfcfc #000000 #000000;
#X obj 161 62 metro 1000;
#X obj 84 159 tabplay~ entrada;
#X obj 84 121 bng 19 250 50 0 empty empty empty 0 -10 0 12 #fcfcfc #000000 #000000;
#X obj 46 197 dac~;
#X obj 183 127 bng 19 250 50 0 empty empty empty 0 -10 0 12 #fcfcfc #000000 #000000;
#X obj 533 113 writesf~ 2;
#X msg 600 41 open grabacion.wav;
#X obj 532 45 adc~;
#X msg 612 66 start;
#X msg 625 90 stop;
#X obj 686 75 bng 19 250 50 0 empty empty empty 0 -10 0 12 #fcfcfc #000000 #000000;
#X obj 687 114 delay 1000;
#X obj 87 246 writesf~ 2;
#X msg 117 184 open entrada.wav;
#X msg 157 208 start;
#X msg 216 217 stop;
#X obj 405 207 soundfiler;
#X floatatom 405 236 14 0 0 0 - - - 0;
#X msg 24 126 stop;
#X msg 405 181 read -resize pajaritos.wav entrada;
#X connect 0 0 2 0;
#X connect 3 0 5 0;
#X connect 4 0 2 0;
#X connect 5 0 2 0;
#X connect 6 0 8 0;
#X connect 6 0 8 1;
#X connect 6 0 17 0;
#X connect 6 0 17 1;
#X connect 7 0 6 0;
#X connect 9 0 6 0;
#X connect 11 0 10 0;
#X connect 12 0 10 0;
#X connect 12 1 10 1;
#X connect 13 0 10 0;
#X connect 14 0 10 0;
#X connect 15 0 13 0;
#X connect 15 0 16 0;
#X connect 16 0 14 0;
#X connect 18 0 17 0;
#X connect 19 0 17 0;
#X connect 20 0 17 0;
#X connect 21 0 22 0;
#X connect 23 0 6 0;
#X connect 24 0 21 0;
