#N canvas 454 369 450 300 12;
#X obj 157 91 expr $f1+$f2+$f3;
#X msg 156 53 1;
#X msg 209 53 2;
#X msg 263 52 3;
#X floatatom 157 127 5 0 0 0 - - - 0;
#X obj 152 18 trigger bang bang bang;
#X obj 91 19 bng 19 250 50 0 empty empty empty 0 -10 0 12 #fcfcfc #000000 #000000;
#X connect 0 0 4 0;
#X connect 1 0 0 0;
#X connect 2 0 0 1;
#X connect 3 0 0 2;
#X connect 5 0 1 0;
#X connect 5 1 2 0;
#X connect 5 2 3 0;
#X connect 6 0 5 0;
