#N canvas 466 163 639 439 12;
#X obj 81 103 osc~;
#X obj 83 153 dac~;
#X floatatom 80 58 5 0 0 0 - - - 0;
#X floatatom 245 156 5 0 0 0 - - - 0;
#X obj 205 70 bng 19 250 50 0 empty empty empty 0 -10 0 12 #fcfcfc #000000 #000000;
#X obj 205 119 + 1;
#X obj 204 48 metro 500;
#X obj 203 17 tgl 19 0 empty empty empty 0 -10 0 12 #fcfcfc #000000 #000000 0 1;
#X obj 204 94 float;
#X connect 0 0 1 0;
#X connect 0 0 1 1;
#X connect 2 0 0 0;
#X connect 2 0 8 0;
#X connect 4 0 8 0;
#X connect 5 0 3 0;
#X connect 5 0 8 1;
#X connect 6 0 4 0;
#X connect 7 0 6 0;
#X connect 8 0 5 0;
