#N canvas 0 182 1151 510 12;
#X floatatom 185 34 5 0 0 0 - - - 0;
#X floatatom 352 32 5 0 0 0 - - - 0;
#X obj 186 125 >=;
#X obj 138 123 <=;
#X obj 53 122 <;
#X obj 95 123 >;
#X obj 229 124 ==;
#X obj 277 122 !=;
#X obj 56 22 vsl 19 50 -100 100 0 0 empty empty empty 0 -9 0 12 #fcfcfc #000000 #000000 0 1;
#X obj 111 23 vsl 19 50 -100 100 0 0 empty empty empty 0 -9 0 12 #fcfcfc #000000 #000000 0 1;
#X floatatom 51 157 5 0 0 0 - - - 0;
#X floatatom 94 157 5 0 0 0 - - - 0;
#X floatatom 138 156 5 0 0 0 - - - 0;
#X floatatom 185 155 5 0 0 0 - - - 0;
#X floatatom 230 154 5 0 0 0 - - - 0;
#X floatatom 278 154 5 0 0 0 - - - 0;
#X floatatom 364 155 5 0 0 0 - - - 0;
#X floatatom 437 156 5 0 0 0 - - - 0;
#X obj 383 125 moses;
#X connect 0 0 4 0;
#X connect 0 0 5 0;
#X connect 0 0 3 0;
#X connect 0 0 2 0;
#X connect 0 0 6 0;
#X connect 0 0 7 0;
#X connect 0 0 18 0;
#X connect 1 0 4 1;
#X connect 1 0 5 1;
#X connect 1 0 3 1;
#X connect 1 0 2 1;
#X connect 1 0 6 1;
#X connect 1 0 7 1;
#X connect 1 0 18 1;
#X connect 2 0 13 0;
#X connect 3 0 12 0;
#X connect 4 0 10 0;
#X connect 5 0 11 0;
#X connect 6 0 14 0;
#X connect 7 0 15 0;
#X connect 8 0 0 0;
#X connect 9 0 1 0;
#X connect 18 0 16 0;
#X connect 18 1 17 0;
