#N canvas 0 362 1151 510 12;
#X obj 171 136 bng 19 250 50 0 empty empty empty 0 -10 0 12 #fcfcfc #000000 #000000;
#X obj 171 104 select 5 13;
#X obj 208 135 bng 19 250 50 0 empty empty empty 0 -10 0 12 #fcfcfc #000000 #000000;
#X msg 152 76 5;
#X msg 200 76 13;
#X msg 114 80 25;
#X floatatom 245 137 5 0 0 0 - - - 0;
#X connect 1 0 0 0;
#X connect 1 1 2 0;
#X connect 1 2 6 0;
#X connect 3 0 1 0;
#X connect 4 0 1 0;
#X connect 5 0 1 0;
