#N canvas -46 220 1587 652 12;
#X obj 261 252 vline~;
#X obj 38 29 inlet;
#X obj 259 287 outlet~;
#X obj 302 36 inlet;
#X obj 358 35 inlet;
#X obj 421 34 inlet;
#X obj 488 34 inlet;
#X obj 550 32 inlet;
#X obj 610 32 inlet;
#X obj 670 30 inlet;
#X text 42 6 bang;
#X text 298 14 attack;
#X text 369 14 ta;
#X text 417 13 decay;
#X text 485 14 td;
#X text 544 11 ts;
#X text 601 12 release;
#X text 669 11 tr;
#X obj 302 85 f;
#X obj 357 82 f;
#X obj 418 84 f;
#X obj 488 82 f;
#X obj 551 82 f;
#X obj 611 81 f;
#X obj 671 79 f;
#X obj 399 115 +;
#X obj 530 148 +;
#X obj 261 176 pack f f f f f f f f f f f;
#X msg 261 217 \$1 \$2 \, \$3 \$4 \$5 \, \$6 \$7 \$8 \, \$9 \$10 \$11;
#X obj 359 248 print;
#X obj 117 29 trigger b b b b b b b;
#X obj 42 53 bng 19 250 50 0 empty empty empty 0 -10 0 12 #fcfcfc #000000 #000000;
#X connect 0 0 2 0;
#X connect 1 0 31 0;
#X connect 3 0 18 0;
#X connect 4 0 19 0;
#X connect 5 0 20 0;
#X connect 6 0 21 0;
#X connect 7 0 22 0;
#X connect 8 0 23 0;
#X connect 9 0 24 0;
#X connect 18 0 27 0;
#X connect 19 0 25 0;
#X connect 19 0 27 1;
#X connect 19 0 27 4;
#X connect 20 0 27 2;
#X connect 20 0 27 5;
#X connect 21 0 25 1;
#X connect 21 0 27 3;
#X connect 21 0 27 6;
#X connect 22 0 26 1;
#X connect 23 0 27 8;
#X connect 24 0 27 9;
#X connect 25 0 26 0;
#X connect 25 0 27 7;
#X connect 26 0 27 10;
#X connect 27 0 28 0;
#X connect 28 0 0 0;
#X connect 28 0 29 0;
#X connect 30 0 18 0;
#X connect 30 1 19 0;
#X connect 30 2 20 0;
#X connect 30 3 21 0;
#X connect 30 4 22 0;
#X connect 30 5 23 0;
#X connect 30 6 24 0;
#X connect 31 0 30 0;
#X coords 0 0 1 0.5 0 0 0;
