#N canvas 264 162 1386 645 12;
#X obj 251 106 lfo~;
#X floatatom 251 62 5 0 0 0 - - - 0;
#X obj 99 102 osc~ 440;
#X obj 114 180 *~;
#X obj 94 252 dac~;
#X obj 30 110 noise~;
#X obj 237 263 envelop~, f 13;
#X obj 200 225 bng 19 250 50 0 empty empty empty 0 -10 0 12 #fcfcfc #000000 #000000;
#X obj 96 223 *~;
#X obj 251 37 ainputs;
#X floatatom 308 67 5 0 0 0 - - - 0;
#X obj 251 9 bng 19 250 50 0 empty empty empty 0 -10 0 12 #fcfcfc #000000 #000000;
#X obj 296 7 bng 19 250 50 0 empty empty empty 0 -10 0 12 #fcfcfc #000000 #000000;
#X obj 236 180 vsl 10 50 0 1 0 0 empty empty empty 0 -9 0 12 #00faff #000000 #000000 0 1;
#X obj 268 180 vsl 10 50 0 1 0 0 empty empty empty 0 -9 0 12 #00faff #000000 #000000 0 1;
#X obj 311 180 vsl 10 50 0 1 0 0 empty empty empty 0 -9 0 12 #00faff #000000 #000000 0 1;
#X obj 251 180 vsl 10 50 0 1000 0 0 empty empty empty 0 -9 0 12 #ff0400 #000000 #000000 0 1;
#X obj 283 180 vsl 10 50 0 1000 0 0 empty empty empty 0 -9 0 12 #ff0400 #000000 #000000 0 1;
#X obj 297 180 vsl 10 50 0 1000 0 0 empty empty empty 0 -9 0 12 #ff0400 #000000 #000000 0 1;
#X obj 327 180 vsl 10 50 0 1000 0 0 empty empty empty 0 -9 0 12 #ff0400 #000000 #000000 0 1;
#X connect 0 0 3 1;
#X connect 1 0 0 0;
#X connect 2 0 8 0;
#X connect 6 0 8 1;
#X connect 7 0 6 0;
#X connect 8 0 4 0;
#X connect 8 0 4 1;
#X connect 9 0 1 0;
#X connect 9 1 10 0;
#X connect 10 0 7 0;
#X connect 11 0 9 0;
#X connect 12 0 9 1;
#X connect 13 0 6 1;
#X connect 14 0 6 3;
#X connect 15 0 6 6;
#X connect 16 0 6 2;
#X connect 17 0 6 4;
#X connect 18 0 6 5;
#X connect 19 0 6 7;
