#N canvas 426 140 657 300 12;
#X obj 312 244 arduino;
#X msg 332 104 devices;
#X msg 431 155 close;
#X msg 432 184 pinMode 8 output;
#X msg 175 202 digital 8 1;
#X msg 66 211 digital 8 0;
#X obj 94 103 f, f 5;
#X obj 94 137 + 1;
#X obj 93 66 metro 100;
#X obj 93 30 tgl 19 0 empty empty empty 0 -10 0 12 #fcfcfc #000000 #000000 0 1;
#X obj 93 167 mod 2;
#X obj 207 92 select 0 1;
#X obj 206 123 bng 19 250 50 0 empty empty empty 0 -10 0 12 #fcfcfc #000000 #000000;
#X obj 241 124 bng 19 250 50 0 empty empty empty 0 -10 0 12 #fcfcfc #000000 #000000;
#X obj 15 155 print;
#X obj 157 26 hsl 162 19 100 500 0 0 empty empty empty -2 -10 0 12 #fcfcfc #000000 #000000 0 1;
#X msg 401 125 open 3;
#X connect 1 0 0 0;
#X connect 2 0 0 0;
#X connect 3 0 0 0;
#X connect 4 0 0 0;
#X connect 5 0 0 0;
#X connect 6 0 7 0;
#X connect 7 0 6 1;
#X connect 7 0 10 0;
#X connect 8 0 6 0;
#X connect 9 0 8 0;
#X connect 10 0 11 0;
#X connect 10 0 14 0;
#X connect 11 0 12 0;
#X connect 11 1 13 0;
#X connect 12 0 5 0;
#X connect 13 0 4 0;
#X connect 15 0 8 1;
#X connect 16 0 0 0;
